<?xml version="1.0" encoding="UTF-8"?>
<!-- Generated by Pixelmator Pro 3.4.3 -->
<svg width="720" height="720" viewBox="0 0 720 720" xmlns="http://www.w3.org/2000/svg">
    <path id="flor" fill="#353534" fill-rule="evenodd" stroke="none" d="M 490.745636 586.691162 C 437.212799 586.691162 393.817627 543.292786 393.817627 489.766357 C 393.817627 488.243164 393.865601 486.735962 393.9328 485.231934 C 438.614349 473.132782 473.734344 437.801544 485.500793 392.985596 C 487.238373 392.892761 488.985596 392.838409 490.745636 392.838409 C 544.275146 392.838409 587.670349 436.233551 587.670349 489.766357 C 587.670349 543.292786 544.275146 586.691162 490.745636 586.691162 Z M 265.404785 357.980804 C 265.404785 304.447968 308.799957 261.052795 362.32962 261.052795 C 415.859192 261.052795 459.254364 304.447968 459.254364 357.980804 C 459.254364 411.510345 415.859192 454.905548 362.32962 454.905548 C 308.799957 454.905548 265.404785 411.510345 265.404785 357.980804 Z M 229.094421 586.691162 C 175.561584 586.691162 132.166412 543.292786 132.166412 489.766357 C 132.166412 436.233551 175.561584 392.838409 229.094421 392.838409 C 230.854401 392.838409 232.601608 392.892761 234.335983 392.985596 C 246.105591 437.79837 281.222351 473.132782 325.903992 485.231934 C 325.974365 486.735962 326.019196 488.243164 326.019196 489.766357 C 326.019196 543.292786 282.623962 586.691162 229.094421 586.691162 Z M 229.094421 327.001587 C 175.561584 327.001587 132.166412 283.606354 132.166412 230.076782 C 132.166412 176.543945 175.561584 133.148804 229.094421 133.148804 C 282.623962 133.148804 326.019196 176.543945 326.019196 230.076782 C 326.019196 231.596771 325.974365 233.107147 325.903992 234.611145 C 281.225616 246.710327 246.105591 282.03833 234.335983 326.857605 C 232.601608 326.947144 230.854401 327.001587 229.094421 327.001587 Z M 490.745636 133.148804 C 544.275146 133.148804 587.670349 176.543945 587.670349 230.076782 C 587.670349 283.606354 544.275146 327.001587 490.745636 327.001587 C 488.985596 327.001587 487.238373 326.947144 485.500793 326.857605 C 473.731171 282.03833 438.614349 246.710327 393.9328 234.607971 C 393.865601 233.107147 393.817627 231.596771 393.817627 230.076782 C 393.817627 176.543945 437.212799 133.148804 490.745636 133.148804 Z M 490.745636 359.919952 C 490.415985 359.919952 490.092773 359.942352 489.763184 359.945557 C 489.763184 359.939178 489.763184 359.929565 489.763184 359.923126 C 489.763184 359.913574 489.763184 359.903961 489.763184 359.894348 C 490.092773 359.897583 490.415985 359.919952 490.745636 359.919952 C 562.457581 359.919952 620.588806 301.788818 620.588806 230.076782 C 620.588806 158.36792 562.457581 100.233582 490.745636 100.233582 C 419.0336 100.233582 360.89917 158.36792 360.89917 230.076782 C 360.89917 230.086334 360.89917 230.092804 360.89917 230.102356 C 360.572815 230.099182 360.249603 230.076782 359.919952 230.076782 C 359.590363 230.076782 359.267181 230.099182 358.937622 230.102356 C 358.937622 230.092804 358.937622 230.086334 358.937622 230.076782 C 358.937622 158.36792 300.803131 100.233582 229.094421 100.233582 C 157.382401 100.233582 99.248001 158.36792 99.248001 230.076782 C 99.248001 301.788818 157.382401 359.919952 229.094421 359.919952 C 229.424011 359.919952 229.747147 359.897583 230.073578 359.894348 C 230.073578 359.903961 230.073578 359.913574 230.073578 359.923126 C 230.073578 359.929565 230.073578 359.939178 230.073578 359.945557 C 229.747147 359.942352 229.424011 359.919952 229.094421 359.919952 C 157.382401 359.919952 99.248001 418.054352 99.248001 489.766357 C 99.248001 561.475159 157.382401 619.606384 229.094421 619.606384 C 300.803131 619.606384 358.937622 561.475159 358.937622 489.766357 C 358.937622 489.756775 358.937622 489.750366 358.937622 489.740784 C 359.267181 489.743958 359.590363 489.766357 359.919952 489.766357 C 360.249603 489.766357 360.572815 489.743958 360.89917 489.740784 C 360.89917 489.750366 360.89917 489.756775 360.89917 489.766357 C 360.89917 561.475159 419.0336 619.606384 490.745636 619.606384 C 562.457581 619.606384 620.588806 561.475159 620.588806 489.766357 C 620.588806 418.054352 562.457581 359.919952 490.745636 359.919952"/>
    <path id="borde" fill="none" stroke="#353534" stroke-width="7.2" d="M 24 696 L 696 696 L 696 24 L 24 24 Z"/>
</svg>
